<svg width="59" height="82" viewBox="0 0 59 82" fill="none" xmlns="http://www.w3.org/2000/svg">
<g id="Screenshot 2023-06-11 at 13.31.53 1" clip-path="url(#clip0_97_303)">
<path id="Vector" d="M54.8221 40.9089C57.468 33.9914 56.6054 27.606 51.299 21.8521C49.422 19.8454 47.1948 18.1142 44.7006 16.7233C40.7821 14.4987 36.8174 12.3339 32.8067 10.229C30.7686 9.15513 28.5521 8.40825 26.1282 8.33131C22.991 8.23835 20.5671 9.36028 19.0858 11.8029C17.6045 14.2455 17.8702 16.7137 19.6754 18.9063C20.6762 20.1114 21.9078 21.1539 23.3149 21.9868C27.8242 24.6377 32.4428 27.1412 37.0176 29.7024C37.276 29.8435 37.5526 29.9589 37.8074 30.1031C38.5571 30.5262 38.7791 31.1289 38.4188 31.7347C38.3345 31.886 38.2141 32.0196 38.0658 32.1261C37.9175 32.2326 37.7449 32.3097 37.5596 32.352C37.3743 32.3943 37.1809 32.4009 36.9925 32.3713C36.8041 32.3416 36.6252 32.2765 36.468 32.1803C34.2843 31.0808 32.1225 29.9364 29.9606 28.8177C29.5967 28.635 29.3492 28.4971 28.9234 28.7632C24.9454 31.3276 20.487 33.1547 16.1196 35.1261C13.8024 36.1659 11.573 37.3507 9.44837 38.6714C8.5203 39.2484 7.83606 40.2549 7.31561 41.1845C6.14369 43.2617 5.71424 45.512 5.56866 47.8295C5.33573 51.5191 5.20471 55.2022 6.11458 58.834C7.20643 63.1679 9.77957 66.7869 13.1825 69.9443C15.2206 71.8323 17.5499 73.4864 19.7336 75.2462C19.8246 75.3167 19.9229 75.3776 20.0211 75.445C20.8436 76.0155 21.0438 76.7271 20.5561 77.2945C20.0684 77.8619 19.1913 77.9581 18.3979 77.365C16.3016 75.7911 14.1324 74.2717 12.1889 72.5568C8.3092 69.1333 5.24838 65.2194 3.7671 60.4785C2.47143 56.3113 2.43504 52.08 2.87178 47.8359C3.08651 45.7588 2.9009 43.89 1.91459 41.8994C-2.08886 33.7638 0.309572 24.439 7.90885 18.4447C10.0926 16.7297 12.6111 15.3578 14.9622 13.8127C15.2546 13.6508 15.4834 13.4136 15.6173 13.1332C17.2551 7.71265 22.3795 4.93348 28.574 6.21568C30.0835 6.50286 31.5434 6.96415 32.9159 7.58764C38.7027 10.3476 44.3621 13.3063 49.5011 16.9509C54.1779 20.2718 57.3806 24.4454 58.5234 29.7281C59.5766 34.2933 58.8762 39.0374 56.5326 43.2136C56.0501 44.0673 55.8616 45.0267 55.9903 45.9735C56.4052 49.7528 56.5945 53.5353 55.9903 57.321C55.2843 62.0331 53.0642 66.1041 49.694 69.7263C45.1956 74.5923 39.8673 78.5351 33.3635 81.2341C30.179 82.558 27.2383 82.0194 24.3267 80.6635C24.1674 80.5981 24.0248 80.5052 23.9072 80.3903C23.7895 80.2754 23.6993 80.1408 23.642 79.9946C23.5846 79.8483 23.5612 79.6934 23.5731 79.5391C23.5851 79.3847 23.6322 79.234 23.7116 79.096C23.8612 78.8152 24.13 78.5974 24.4601 78.4895C24.7903 78.3815 25.1554 78.3922 25.4767 78.519C26.1573 78.7434 26.8234 78.9967 27.4894 79.2499C28.1319 79.4895 28.8225 79.613 29.5202 79.613C30.218 79.613 30.9086 79.4895 31.5511 79.2499C34.6046 78.2434 37.2396 76.6438 39.78 74.9032C43.2971 72.5235 46.4004 69.7039 48.9916 66.5337C52.8203 61.8055 53.9267 56.462 53.621 50.8042C53.5155 48.8297 53.5664 46.8166 53.1079 44.8997C52.4855 42.3097 51.7321 39.6427 48.8787 38.0816C47.1864 37.1552 45.4431 36.2897 43.7143 35.4114C43.2157 35.1582 42.6698 34.9819 42.1711 34.7286C41.8588 34.5837 41.6233 34.3368 41.5151 34.0408C41.407 33.7448 41.4347 33.4233 41.5925 33.1451C41.6561 33.0063 41.7516 32.8804 41.8729 32.7755C41.9942 32.6705 42.1388 32.5888 42.2976 32.5352C42.4564 32.4817 42.626 32.4575 42.7959 32.4643C42.9657 32.4711 43.1322 32.5086 43.2848 32.5745C46.5604 33.908 49.8614 35.2672 52.4018 37.5976C53.3772 38.5143 53.974 39.7292 54.8221 40.9089ZM15.5773 16.3387C9.62306 19.6115 4.9099 23.5671 3.31216 29.7537C2.29468 33.4713 2.69633 37.3805 4.45497 40.8768C5.32117 38.4534 7.21007 36.8379 9.55027 35.5749C11.0061 34.7799 12.531 34.0459 14.0487 33.331C17.8083 31.552 21.5861 29.805 25.3312 28.0291C25.848 27.7855 26.3102 27.4521 26.8343 27.1412C24.7306 25.827 22.7034 24.6185 20.7417 23.3267C18.1249 21.5989 16.2106 19.4159 15.5773 16.3387Z" fill="#394C02" fill-opacity="0.8"/>
<path id="Vector_2" d="M29.9604 0C36.9592 0.32055 43.8451 3.01317 49.0969 8.65486C50.6692 10.3474 51.4772 12.3572 51.903 14.4857C52.0741 15.3223 51.6628 15.8961 50.8985 16.0275C50.7125 16.0703 50.5182 16.0765 50.3292 16.0457C50.1403 16.015 49.9613 15.948 49.805 15.8495C49.6487 15.751 49.5189 15.6234 49.4249 15.4758C49.3308 15.3282 49.2748 15.1642 49.2607 14.9953C48.4345 10.6775 45.2755 7.91119 41.2975 5.72824C35.5471 2.57402 29.3781 1.44568 22.7797 3.19589C16.9565 4.74094 13.4516 8.23173 12.1851 13.4535C11.9485 14.4344 11.3771 14.88 10.4891 14.7357C9.67382 14.6043 9.27712 14.0273 9.49913 13.0496C10.7402 7.53935 14.2887 3.64145 20.1592 1.43927C22.8961 0.439156 25.7859 0.00961651 29.9604 0Z" fill="#394C02" fill-opacity="0.8"/>
<path id="Vector_3" d="M22.1901 49.4866C22.4375 49.913 22.7287 50.3521 22.9543 50.8137C23.033 50.9448 23.0813 51.0884 23.0964 51.2361C23.1116 51.3838 23.0932 51.5327 23.0424 51.674C22.9916 51.8154 22.9094 51.9465 22.8005 52.0596C22.6917 52.1728 22.5584 52.2658 22.4084 52.3331C22.1027 52.4814 21.7444 52.5215 21.4063 52.4452C21.0683 52.369 20.7759 52.1822 20.5887 51.9228C20.4176 51.7048 20.2902 51.458 20.141 51.2272C19.9918 50.9964 19.8462 50.7656 19.6752 50.4996L18.5178 50.7304C18.2412 51.692 18.9946 53.2948 17.062 53.2691C15.2422 53.2467 15.8828 51.7241 15.6535 50.7336L14.4852 50.4932C14.1941 50.958 13.9393 51.4099 13.6409 51.8363C13.5568 51.9786 13.4417 52.1049 13.3021 52.2079C13.1624 52.311 13.0011 52.3887 12.8273 52.4366C12.6534 52.4846 12.4706 52.5018 12.2892 52.4874C12.1078 52.4729 11.9314 52.427 11.7702 52.3524C11.1114 52.0318 10.9039 51.3907 11.2643 50.6823C11.3771 50.4643 11.5227 50.2624 11.6464 50.0412C11.7702 49.82 11.883 49.6213 12.0104 49.4001C11.7046 49.1501 11.4026 48.9257 11.1296 48.6821C10.5145 48.1211 10.4745 47.4864 11.0059 46.9703C11.5372 46.4542 12.2615 46.4895 12.9712 46.9062C13.7937 47.387 14.6163 47.948 15.537 48.1884C17.5279 48.7333 19.3476 48.2814 20.9635 47.1082C21.3384 46.8156 21.8169 46.6468 22.3174 46.6305C22.5425 46.6714 22.7539 46.7571 22.9356 46.881C23.1172 47.0049 23.2643 47.1637 23.3656 47.3454C23.4604 47.7446 23.3866 48.1606 23.1582 48.5154C22.9725 48.868 22.5722 49.1212 22.1901 49.4866Z" fill="#394C02" fill-opacity="0.8"/>
<path id="Vector_4" d="M47.0297 49.4129C47.3208 49.9001 47.6047 50.3136 47.8231 50.7528C47.9891 51.0286 48.0261 51.3506 47.9261 51.6501C47.8262 51.9496 47.5972 52.2027 47.2881 52.3555C47.1276 52.4319 46.9514 52.4794 46.7698 52.4953C46.5883 52.5112 46.4049 52.4951 46.2305 52.4479C46.0561 52.4008 45.894 52.3236 45.7538 52.2207C45.6136 52.1179 45.498 51.9916 45.4137 51.849C45.1153 51.4195 44.8569 50.9675 44.5657 50.4995L43.4084 50.7335C43.1718 51.7144 43.8451 53.2434 42.0144 53.2691C40.0819 53.2979 40.8025 51.7144 40.5586 50.7431L39.4158 50.4867C39.1429 50.9162 38.8808 51.3586 38.5897 51.7689C38.1384 52.4357 37.334 52.6664 36.6607 52.3363C35.9874 52.0061 35.8054 51.349 36.173 50.663C36.395 50.2559 36.6535 49.8616 36.9301 49.3968L36.2022 48.823C35.4197 48.1819 35.3141 47.4992 35.911 46.9414C36.5079 46.3837 37.2503 46.4349 38.0074 47.0248C39.5796 48.2396 41.3885 48.7205 43.4011 48.2076C44.2836 47.9446 45.111 47.5559 45.8505 47.0568C46.7349 46.5055 47.4628 46.4157 48.0342 46.9446C48.6056 47.4735 48.5255 48.1884 47.6702 48.8679L47.0297 49.4129Z" fill="#394C02" fill-opacity="0.8"/>
<path id="Vector_5" d="M35.5397 64.3504C35.4257 64.6257 35.287 64.8926 35.1248 65.1486C32.0895 68.8862 26.8886 68.9952 23.6822 65.1967C23.4768 64.9551 23.3833 64.6538 23.4207 64.3537C23.4582 64.0537 23.6238 63.7775 23.8839 63.581C24.144 63.3845 24.4792 63.2824 24.8216 63.2956C25.164 63.3087 25.4879 63.436 25.7276 63.6516C26.0916 63.9721 26.4228 64.3215 26.8195 64.6133C28.4682 65.9307 30.5136 65.8955 32.1113 64.5395C32.4753 64.219 32.7446 63.767 33.1741 63.5779C33.6308 63.3614 34.1626 63.3019 34.6663 63.4112C35.0375 63.5362 35.2668 64.0427 35.5397 64.3504Z" fill="#394C02" fill-opacity="0.8"/>
<path id="Vector_6" d="M17.2549 57.8658C17.2649 58.1745 17.1378 58.4745 16.9006 58.702C16.6634 58.9295 16.3348 59.0665 15.9847 59.0839C15.8026 59.0943 15.6199 59.0725 15.4475 59.0198C15.2751 58.9671 15.1164 58.8845 14.9808 58.777C14.8451 58.6695 14.7353 58.5392 14.6577 58.3937C14.5801 58.2482 14.5363 58.0905 14.5289 57.9299C14.5269 57.6065 14.6699 57.2955 14.9268 57.0644C15.1838 56.8333 15.5338 56.7009 15.901 56.6958C16.254 56.7006 16.5914 56.8247 16.8435 57.0425C17.0955 57.2602 17.2428 57.555 17.2549 57.8658Z" fill="#394C02" fill-opacity="0.8"/>
<path id="Vector_7" d="M12.3015 58.6415C12.6516 58.6266 12.9941 58.7342 13.2545 58.9407C13.5149 59.1472 13.6721 59.436 13.6918 59.7442C13.7036 59.9043 13.679 60.0649 13.6194 60.2166C13.5598 60.3682 13.4664 60.5078 13.3447 60.6273C13.223 60.7467 13.0754 60.8435 12.9107 60.9121C12.7459 60.9806 12.5673 61.0195 12.3853 61.0264C12.0187 61.029 11.6657 60.9043 11.4027 60.6793C11.1398 60.4543 10.9881 60.1471 10.9804 59.8243C10.9849 59.5152 11.1249 59.2195 11.3711 58.9991C11.6173 58.7787 11.9507 58.6506 12.3015 58.6415Z" fill="#394C02" fill-opacity="0.8"/>
<path id="Vector_8" d="M18.3758 61.0455C18.3707 61.2045 18.3296 61.361 18.255 61.5058C18.1804 61.6507 18.0736 61.7809 17.9411 61.889C17.8086 61.9971 17.6529 62.0808 17.4832 62.1352C17.3135 62.1896 17.1332 62.2136 16.9528 62.2059C16.5976 62.1906 16.2638 62.0516 16.0249 61.8196C15.786 61.5875 15.6616 61.2814 15.679 60.9686C15.6963 60.6557 15.8541 60.3617 16.1176 60.1513C16.381 59.9409 16.7286 59.8313 17.0838 59.8466C17.4333 59.8607 17.7631 59.9934 18.0039 60.2169C18.2448 60.4404 18.3781 60.7373 18.3758 61.0455Z" fill="#394C02" fill-opacity="0.8"/>
<path id="Vector_9" d="M47.299 57.4747C47.309 57.7834 47.1819 58.0834 46.9447 58.3109C46.7075 58.5384 46.3789 58.6754 46.0288 58.6928C45.8467 58.7032 45.664 58.6814 45.4916 58.6287C45.3192 58.576 45.1605 58.4934 45.0249 58.3859C44.8892 58.2784 44.7794 58.148 44.7018 58.0026C44.6242 57.8571 44.5804 57.6994 44.573 57.5388C44.5729 57.2159 44.7165 56.9058 44.973 56.6751C45.2296 56.4444 45.5785 56.3114 45.9451 56.3047C46.2978 56.3102 46.6348 56.4346 46.8866 56.6522C47.1384 56.8698 47.286 57.1642 47.299 57.4747Z" fill="#394C02" fill-opacity="0.8"/>
<path id="Vector_10" d="M42.3456 58.2663C42.696 58.2523 43.0385 58.3606 43.2988 58.5677C43.5591 58.7747 43.7162 59.0638 43.7359 59.3722C43.7482 59.5327 43.7238 59.6938 43.6642 59.8458C43.6046 59.9979 43.5109 60.1378 43.3887 60.2574C43.2665 60.3769 43.1183 60.4737 42.9529 60.5419C42.7875 60.6101 42.6082 60.6484 42.4257 60.6544C42.0597 60.6554 41.7078 60.5302 41.4452 60.3055C41.1827 60.0809 41.0304 59.7747 41.0209 59.4524C41.0263 59.1426 41.167 58.8466 41.4136 58.6257C41.6603 58.4049 41.9941 58.2762 42.3456 58.2663Z" fill="#394C02" fill-opacity="0.8"/>
<path id="Vector_11" d="M48.4199 60.6705C48.4153 60.8296 48.3746 60.9863 48.3001 61.1314C48.2256 61.2764 48.1189 61.4069 47.9863 61.515C47.8537 61.6231 47.6978 61.7068 47.5279 61.7611C47.3579 61.8153 47.1774 61.839 46.9969 61.8309C46.8191 61.826 46.6441 61.79 46.4823 61.7249C46.3204 61.6599 46.1749 61.5671 46.0542 61.4519C45.9336 61.3368 45.8401 61.2016 45.7794 61.0543C45.7187 60.9071 45.6919 60.7506 45.7006 60.5941C45.7093 60.4376 45.7534 60.2842 45.8301 60.1428C45.9069 60.0015 46.0149 59.875 46.1477 59.7708C46.2806 59.6666 46.4357 59.5867 46.604 59.5359C46.7723 59.4851 46.9504 59.4643 47.1279 59.4748C47.4771 59.4881 47.8068 59.6201 48.0478 59.8431C48.2888 60.0661 48.4222 60.3626 48.4199 60.6705Z" fill="#394C02" fill-opacity="0.8"/>
<path id="Vector_12" d="M15.5771 16.3384C16.203 19.4157 18.1247 21.5986 20.7379 23.3264C22.6996 24.6086 24.7413 25.8267 26.8304 27.1409C26.3063 27.4615 25.8441 27.782 25.3273 28.0289C21.5677 29.8047 17.7899 31.5549 14.0448 33.3308C12.5272 34.0488 11.0131 34.7828 9.54639 35.5746C7.21711 36.8376 5.32821 38.4596 4.45109 40.8765C2.69163 37.3793 2.28999 33.4688 3.30829 29.7502C4.90967 23.5668 9.62282 19.6112 15.5771 16.3384Z" fill="white"/>
</g>
<defs>
<clipPath id="clip0_97_303">
<rect width="59" height="82" fill="white"/>
</clipPath>
</defs>
</svg>
