<svg width="81" height="82" viewBox="0 0 81 82" fill="none" xmlns="http://www.w3.org/2000/svg">
<g id="house-tree 1" clip-path="url(#clip0_97_319)">
<path id="Vector" d="M47.2466 46.6068L28.9146 32.0381C26.7476 30.3161 23.7259 30.3161 21.5623 32.0381L3.22694 46.6068C1.17435 48.2365 0 50.6863 0 53.3342V82.0034H50.4735V53.3308C50.4735 50.6863 49.2958 48.2365 47.2466 46.6068ZM47.1086 78.5833H3.3649V53.3308C3.3649 51.742 4.07153 50.2694 5.30308 49.2923L23.6351 34.7236C24.5772 33.9753 25.8963 33.9753 26.8384 34.7236L45.1704 49.2923C46.402 50.2694 47.1086 51.742 47.1086 53.3308V78.5833ZM16.8245 68.3333H33.649V51.25H16.8245V68.3333ZM20.1894 54.6667H30.2841V64.9167H20.1894V54.6667ZM57.2033 78.5833H75.044L62.5064 54.6667H69.9495L55.7968 30.75H65.2017L51.6142 4.80383C50.4735 3.18433 47.2566 2.99983 45.8669 4.91658L34.0595 27.4495L33.0669 26.6603C32.4982 26.2058 31.8992 25.8129 31.2835 25.4713L43.0572 3.02717C44.3561 1.13092 46.4928 0 48.7675 0C51.0422 0 53.1789 1.13092 54.4777 3.02717L70.8109 34.1667H61.7493L75.902 58.0833H68.1123L80.6499 82H57.2066L57.2033 78.5833Z" fill="#394C02" fill-opacity="0.8"/>
</g>
<defs>
<clipPath id="clip0_97_319">
<rect width="80.7576" height="82" fill="white"/>
</clipPath>
</defs>
</svg>
